<svg xmlns="http://www.w3.org/2000/svg" viewBox="0 0 140 140" fill="none">
  <defs>
    <linearGradient id="left" x1="0%" y1="0%" x2="0%" y2="100%">
      <stop offset="0%" stop-color="#10B981"/>
      <stop offset="50%" stop-color="#3B82F6"/>
      <stop offset="100%" stop-color="#8B5CF6"/>
    </linearGradient>
    <linearGradient id="right" x1="0%" y1="0%" x2="0%" y2="100%">
      <stop offset="0%" stop-color="#059669"/>
      <stop offset="50%" stop-color="#2563EB"/>
      <stop offset="100%" stop-color="#7C3AED"/>
    </linearGradient>
    <linearGradient id="top" x1="0%" y1="0%" x2="100%" y2="0%">
      <stop offset="0%" stop-color="#6EE7B7"/>
      <stop offset="50%" stop-color="#93C5FD"/>
      <stop offset="100%" stop-color="#C4B5FD"/>
    </linearGradient>
  </defs>
  <!-- Segment 1 (top cap) -->
  <polygon points="25,30 70,10 115,30 70,50" fill="url(#top)"/>
  <polygon points="25,30 70,50 70,56 25,36" fill="url(#left)"/>
  <polygon points="70,50 115,30 115,36 70,56" fill="url(#right)"/>
  <!-- Segment 2 -->
  <polygon points="25,42 70,62 70,68 25,48" fill="url(#left)"/>
  <polygon points="70,62 115,42 115,48 70,68" fill="url(#right)"/>
  <!-- Segment 3 -->
  <polygon points="25,54 70,74 70,80 25,60" fill="url(#left)"/>
  <polygon points="70,74 115,54 115,60 70,80" fill="url(#right)"/>
  <!-- Segment 4 (bottom body) -->
  <polygon points="25,66 70,86 70,120 25,100" fill="url(#left)"/>
  <polygon points="70,86 115,66 115,100 70,120" fill="url(#right)"/>
</svg>
